<svg id="Starz" xmlns="http://www.w3.org/2000/svg" viewBox="0 0 208.77 50.26"><defs><style>.cls-1{fill:#fff;}</style></defs><title>starz_logo</title><path class="cls-1" d="M206.55,45a2.26,2.26,0,1,1-2.2,2.26A2.22,2.22,0,0,1,206.55,45Zm0,4.1a1.84,1.84,0,1,0-1.75-1.84A1.78,1.78,0,0,0,206.55,49.09Zm-.75-3h.9a.68.68,0,0,1,.73.72.62.62,0,0,1-.42.62h0a.74.74,0,0,1,.08.13l.44.86h-.48l-.43-.9h-.38v.9h-.44Zm.81,1.11a.36.36,0,0,0,.38-.39.35.35,0,0,0-.38-.38h-.37v.77Z"/><path class="cls-1" d="M79.33,49.43l3.82-7.58h21L108,49.43h10.31L93.67.6,69.16,49.43Zm8.33-16.49,6-11.92,6,11.92Z"/><polygon class="cls-1" points="77.85 0.83 39.17 0.83 39.17 9.74 53.57 9.74 53.57 49.43 63.45 49.43 63.45 9.74 77.85 9.74 77.85 0.83"/><path class="cls-1" d="M155.84,15.69a14,14,0,0,0-4.47-10.63c-3-2.77-7.34-4.23-12.46-4.23h-18.3v48.6h9.88V31.71h7l10.21,17.72h11.32L147.51,29.32C154.78,25.92,155.84,19.29,155.84,15.69Zm-18.16,6.5h-7.19V9.74h7.19c5.3,0,8.22,2.14,8.22,6.2S142.82,22.19,137.68,22.19Z"/><polygon class="cls-1" points="203.49 0.83 163.33 0.83 163.33 9.74 186.29 9.74 161.35 49.43 202.97 49.43 202.97 40.52 178.55 40.52 203.49 0.83"/><path class="cls-1" d="M21.75,20.65c-8-1.89-10.8-3.18-10.8-6.85,0-3.06,2.83-5,7-5,6.44,0,12.2,4.44,13.75,5.76l4.13-8.37A27.53,27.53,0,0,0,18.13,0C8.17,0,1.21,6,1.21,14.47c0,9.3,6,12.5,16.35,15,8.66,2,10.19,3.72,10.19,6.59,0,3.39-3,5.41-7.72,5.41-5.8,0-10.53-2.21-16-7.28L0,42.87a30.09,30.09,0,0,0,19.82,7.39c10.73,0,17.67-5.78,17.67-15C37.49,27.64,32.93,23.37,21.75,20.65Z"/></svg>